<svg xmlns="http://www.w3.org/2000/svg" version="1.1" xmlns:xlink="http://www.w3.org/1999/xlink" width="512" height="512" x="0" y="0" viewBox="0 0 32 32" style="enable-background:new 0 0 512 512" xml:space="preserve" fill-rule="evenodd" class=""><g><path d="M6.839 8.253 4.293 5.707l1.414-1.414 2.546 2.546A11.947 11.947 0 0 1 16 4c6.623 0 12 5.377 12 12 0 2.952-1.068 5.656-2.839 7.747l2.546 2.546-1.414 1.414-2.546-2.546A11.947 11.947 0 0 1 16 28C9.377 28 4 22.623 4 16c0-2.952 1.068-5.656 2.839-7.747zm15.488 15.489-.977-.978A8.96 8.96 0 0 0 16 21a8.973 8.973 0 0 0-6.404 2.679A9.96 9.96 0 0 0 16 26c2.4 0 4.603-.847 6.327-2.258zM8.196 22.25A10.967 10.967 0 0 1 16 19c.585 0 1.159.046 1.72.134l-1.165-1.165a5.002 5.002 0 0 1-5.524-5.524L8.258 9.673A9.956 9.956 0 0 0 6 16c0 2.364.822 4.538 2.196 6.25zM9.673 8.258l2.089 2.09A4.997 4.997 0 0 1 16 8c2.76 0 5 2.24 5 5a4.997 4.997 0 0 1-2.348 4.238l4.013 4.013c.402.307.783.641 1.139.999A9.953 9.953 0 0 0 26 16c0-5.519-4.481-10-10-10-2.4 0-4.603.847-6.327 2.258zm3.566 3.567 3.936 3.936a3.001 3.001 0 1 0-3.936-3.936z" fill="#828282" opacity="1" data-original="#000000" class=""></path></g></svg>