<svg width="330" height="366" viewBox="0 0 330 366" fill="none" xmlns="http://www.w3.org/2000/svg">
<path d="M293.333 36.6H275V0H238.333V36.6H91.6667V0H55V36.6H36.6667C16.4083 36.6 0 52.9785 0 73.2V329.4C0 349.621 16.4083 366 36.6667 366H293.333C313.592 366 330 349.621 330 329.4V73.2C330 52.9785 313.592 36.6 293.333 36.6ZM165 91.5C195.342 91.5 220 116.113 220 146.4C220 176.778 195.342 201.3 165 201.3C134.658 201.3 110 176.778 110 146.4C110 116.113 134.658 91.5 165 91.5ZM275 311.1H55V292.8C55 256.2 128.333 236.07 165 236.07C201.667 236.07 275 256.2 275 292.8V311.1Z" fill="#976DD0"/>
</svg>
