<svg width="512" height="512" viewBox="0 0 512 512" fill="none" xmlns="http://www.w3.org/2000/svg">
<path d="M430.81 158.692V158.456V64.6903C430.81 63.7081 430.609 62.735 430.218 61.8264C429.826 60.9177 429.252 60.0908 428.526 59.3934C427.801 58.6959 426.939 58.1417 425.988 57.7634C425.038 57.385 424.018 57.1902 422.988 57.1904H360.909C359.88 57.1902 358.86 57.385 357.91 57.7634C356.959 58.1417 356.097 58.6959 355.371 59.3934C354.646 60.0908 354.072 60.9178 353.68 61.8264C353.289 62.735 353.088 63.7081 353.088 64.6904V93.5459V94.6053L352.27 93.9318L292.265 44.5178L292.263 44.5164C284.678 38.2107 274.982 34.7383 264.948 34.7383C254.914 34.7383 245.219 38.2107 237.634 44.5164L237.632 44.5178L38.1462 208.859C38.1451 208.86 38.1439 208.861 38.1427 208.862C35.6657 210.983 33.9143 213.77 33.1136 216.858C32.3126 219.948 32.4997 223.197 33.6508 226.183C34.8021 229.17 36.865 231.756 39.5734 233.602C42.2808 235.447 45.5062 236.466 48.8283 236.522H98.591H99.091V237.022V388.397C99.1021 406.49 106.577 423.843 119.884 436.65C133.191 449.457 151.243 456.671 170.081 456.702H257.293C259.345 456.662 261.296 455.851 262.728 454.447C264.16 453.044 264.958 451.16 264.958 449.202C264.958 447.244 264.16 445.36 262.727 443.957C261.296 442.553 259.345 441.742 257.293 441.702H170.08H170.079C155.401 441.676 141.329 436.054 130.952 426.063C120.575 416.071 114.74 402.526 114.734 388.397V229.022C114.734 227.04 113.915 225.134 112.45 223.726C110.985 222.317 108.993 221.523 106.912 221.522H106.909L48.6624 221.116L47.2843 221.107L48.348 220.23L247.823 55.8957C247.823 55.8955 247.823 55.8954 247.824 55.8952C252.584 51.938 258.663 49.7626 264.95 49.7626C271.237 49.7626 277.316 51.9377 282.076 55.8944C282.077 55.8949 282.077 55.8953 282.078 55.8957L355.81 116.616C355.811 116.617 355.811 116.617 355.812 116.618C356.954 117.531 358.344 118.117 359.821 118.305C361.299 118.493 362.802 118.274 364.155 117.676C365.508 117.077 366.654 116.124 367.463 114.929C368.271 113.736 368.71 112.349 368.731 110.929V72.6904V72.1904H369.231H414.667H415.167V72.6904V162.136C415.167 163.215 415.411 164.281 415.881 165.263C416.351 166.245 417.037 167.119 417.894 167.824L417.896 167.826L481.404 220.638L482.468 221.522H481.085H422.988C421.958 221.522 420.939 221.717 419.988 222.095C419.038 222.474 418.175 223.028 417.45 223.725C416.724 224.423 416.15 225.25 415.759 226.158C415.367 227.067 415.166 228.04 415.167 229.022V258.618C415.208 260.574 416.044 262.441 417.504 263.817C418.965 265.195 420.934 265.969 422.988 265.969C425.043 265.969 427.012 265.194 428.473 263.817C429.933 262.441 430.769 260.574 430.81 258.618V237.022V236.522H431.31H481.083C484.431 236.512 487.693 235.518 490.434 233.677C493.174 231.836 495.261 229.237 496.419 226.229C497.576 223.221 497.749 219.946 496.916 216.841C496.084 213.737 494.284 210.948 491.754 208.85L430.81 158.692ZM430.81 158.692L430.992 158.842L491.752 208.849L430.81 158.692Z" fill="black" stroke="black"/>
<path d="M351.966 269.742C338.308 269.742 324.783 272.433 312.164 277.66C299.545 282.887 288.079 290.548 278.42 300.206C258.915 319.712 247.957 346.167 247.957 373.752C247.957 401.338 258.915 427.793 278.421 447.298C297.927 466.804 324.382 477.762 351.967 477.762C489.95 472.05 489.906 275.433 351.966 269.742ZM351.967 461.762C235.21 456.93 235.249 290.555 351.968 285.742C375.309 285.742 397.695 295.015 414.2 311.52C430.705 328.025 439.977 350.411 439.977 373.752C439.977 397.094 430.705 419.479 414.2 435.984C397.695 452.489 375.309 461.762 351.967 461.762Z" fill="black"/>
<path d="M392.009 365.756H360.009V333.752C359.969 331.657 359.108 329.662 357.612 328.195C356.116 326.728 354.104 325.906 352.009 325.906C349.914 325.906 347.903 326.728 346.407 328.195C344.911 329.662 344.05 331.657 344.009 333.752V365.756H312.009C309.915 365.797 307.92 366.657 306.453 368.153C304.986 369.649 304.164 371.661 304.164 373.756C304.164 375.851 304.986 377.863 306.453 379.358C307.92 380.854 309.915 381.715 312.01 381.756H344.009V413.756C344.009 415.877 344.852 417.912 346.353 419.413C347.853 420.913 349.888 421.756 352.009 421.756C354.131 421.756 356.166 420.913 357.666 419.413C359.167 417.912 360.009 415.877 360.009 413.756V381.756H392.009C394.131 381.756 396.166 380.913 397.666 379.413C399.167 377.912 400.009 375.877 400.009 373.756C400.009 371.634 399.167 369.599 397.666 368.099C396.166 366.599 394.131 365.756 392.009 365.756Z" fill="black"/>
</svg>
