<svg width="34" height="34" viewBox="0 0 34 34" fill="none" xmlns="http://www.w3.org/2000/svg">
<path fill-rule="evenodd" clip-rule="evenodd" d="M15.5617 9.91634C15.5617 11.4747 14.2867 12.7497 12.7283 12.7497C11.17 12.7497 9.89501 11.4747 9.89501 9.91634C9.89501 8.35801 11.17 7.08301 12.7283 7.08301C14.2867 7.08301 15.5617 8.35801 15.5617 9.91634ZM16.4117 19.9038L21.3559 11.9846C21.9367 11.0638 23.2826 11.1063 23.8067 12.0555L30.7201 24.8197C31.2301 25.7688 30.5501 26.9163 29.4734 26.9163H4.52595C3.44928 26.9163 2.75511 25.7547 3.30761 24.8055L7.67095 17.0422C8.11011 16.2772 9.11595 16.0788 9.79595 16.6313L14.3292 20.258C14.9809 20.7822 15.9584 20.6263 16.4117 19.9038Z" fill="#A6A6A6"/>
</svg>
