<svg xmlns="http://www.w3.org/2000/svg" version="1.1" xmlns:xlink="http://www.w3.org/1999/xlink" width="512" height="512" x="0" y="0" viewBox="0 0 64 64" style="enable-background:new 0 0 512 512" xml:space="preserve" class=""><g><g data-name="Home Loan"><path d="M58.41 31.75c-.737-.497-2.22-1.486-12.027 5.825a2.358 2.358 0 0 0-.572-.849c-.93-.892-2.69-1.237-5.233-1.029a30.06 30.06 0 0 1-7.623-.446 15.41 15.41 0 0 1-2.086-.769 13.006 13.006 0 0 0-2.951-.945c-6.59-1.409-11.573.518-14.832 5.725l-.158-.195a2.203 2.203 0 0 0-3.097-.325L5.68 42.105a2.205 2.205 0 0 0-.326 3.097l10.472 12.932a2.205 2.205 0 0 0 3.097.325l4.153-3.362A2.205 2.205 0 0 0 23.4 52l-.09-.111a18.41 18.41 0 0 1 9.78-.524 24.337 24.337 0 0 0 3.573.37h.042c9.768 0 20.638-12.125 22.23-17.295.493-1.597-.014-2.344-.525-2.69zM21.815 53.542l-4.151 3.362a.2.2 0 0 1-.285-.029L6.908 43.943a.202.202 0 0 1 .03-.284l4.152-3.362a.19.19 0 0 1 .12-.037.214.214 0 0 1 .164.066l1.079 1.333v.001l9.393 11.598a.202.202 0 0 1-.03.284zm31.942-14.41c-3.976 4.896-10.822 10.604-17.05 10.604h-.038a22.945 22.945 0 0 1-3.276-.348 20.151 20.151 0 0 0-11.41.86l-7.555-9.328c2.804-4.928 7.085-6.709 13.071-5.427a11.042 11.042 0 0 1 2.566.82 17.38 17.38 0 0 0 2.323.856 31.54 31.54 0 0 0 8.355.521c2.72-.224 3.507.31 3.684.48a.338.338 0 0 1 .117.294c-.023.556-1.677 2.235-3.976 3.164-1.555.63-3.98.404-6.322.184-2.261-.21-4.394-.411-5.996.104a1 1 0 0 0 .61 1.904 15.596 15.596 0 0 1 5.2-.016c1.246.116 2.512.235 3.715.235a9.524 9.524 0 0 0 3.543-.556 12.718 12.718 0 0 0 3.787-2.42c8.789-6.831 11.412-7.582 12.029-7.652-.089.71-.927 2.705-3.377 5.72zM49.92 17.454l-2.758-2.529v-6.76a1 1 0 0 0-1-1h-3.356a1 1 0 0 0-1 1v1.85l-5.13-4.702a1 1 0 0 0-1.352 0L22.08 17.454a1 1 0 0 0 .676 1.737H25v11.142a1 1 0 0 0 1 1h19.998a1 1 0 0 0 1-1V19.191h2.246a1 1 0 0 0 .676-1.737zm-6.114-8.29h1.356v3.928l-1.356-1.243zM46 17.191a1 1 0 0 0-1 1v11.142H27.001V18.191a1 1 0 0 0-1-1h-.675L36 7.407l10.674 9.784z" fill="#986dcd" opacity="1" data-original="#000000" class=""></path></g></g></svg>