<svg xmlns="http://www.w3.org/2000/svg" version="1.1" xmlns:xlink="http://www.w3.org/1999/xlink" width="512" height="512" x="0" y="0" viewBox="0 0 64 64" style="enable-background:new 0 0 512 512" xml:space="preserve" class=""><g><path d="M36.987 46v-3.348c8.789-5.093 5.173-18.602-5-18.651-5.514 0-10 4.485-10 10 0 3.604 1.9 6.864 5 8.65v14.35a1 1 0 0 0 .553.894l4 2c.281.14.613.14.895 0l4-2a1 1 0 0 0 .552-.895v-3c.08-.6-1.092-1.429-1.586-2l1.293-1.293a1 1 0 0 0 0-1.414L35.401 48c.508-.587 1.659-1.387 1.586-2zm-2-3.946v3.532l-1.707 1.707a1 1 0 0 0 0 1.414L34.573 50l-1.293 1.293a1 1 0 0 0 0 1.414l1.707 1.707v1.968l-3 1.5-3-1.5V42.054a1 1 0 0 0-.554-.895C20.917 37.383 23.586 26.063 31.988 26c4.41 0 8 3.588 8 8a7.956 7.956 0 0 1-4.446 7.158 1 1 0 0 0-.555.895zm0-7.054h-6c-1.315-.022-1.312-1.978 0-2h6c1.316.023 1.313 1.979 0 2zm19.5-11.966V49h1.5c1.103 0 2 .898 2 2v2c0 1.103-.897 2-2 2h-15c-1.313-.016-1.313-1.987 0-2h15v-2h-15c-1.313-.017-1.313-1.985 0-2h11.5V21.33c.026-.164.066-.334.13-.488.3-.47.86-.623 1.361-.384l2.52 1.41c.52.283 1.079.099 1.357-.372a1.01 1.01 0 0 0-.375-1.374l-25.001-14a1.066 1.066 0 0 0-.996.006L6.493 20.123c-.757.388-.616 1.625.209 1.835.259.074.535.042.777-.091l24.02-13.45a1 1 0 0 1 .977 0l17.152 9.6a1 1 0 1 1-.977 1.745l-16.664-9.327-20.5 11.479V49h11.5c1.308.025 1.325 1.969 0 2h-15v2h15a1 1 0 1 1 0 2h-15c-1.102 0-2-.897-2-2v-2c0-1.102.898-2 2-2h1.5V23.034c-.972.6-2.173 1.254-3.337.846-2.509-.64-2.915-4.302-.636-5.501L30.52 4.376c.924-.5 2.012-.5 2.924-.007L58.46 18.378c3.404 2.032.532 7.115-2.952 5.227l-1.02-.57z" fill="#ffffff" opacity="1" data-original="#000000"></path></g></svg>