<svg width="64" height="64" viewBox="0 0 64 64" fill="none" xmlns="http://www.w3.org/2000/svg">
<path d="M17.9404 50.7695H22.0904V59.9995H17.9404V50.7695Z" fill="#B696EC"/>
<path d="M24.0898 50.7695H28.2398V59.9995H24.0898V50.7695Z" fill="#B696EC"/>
<path d="M11.6602 60H15.9402V49.77C15.9402 49.5048 16.0455 49.2504 16.233 49.0629C16.4206 48.8754 16.6749 48.77 16.9402 48.77H29.2302C29.4954 48.77 29.7497 48.8754 29.9373 49.0629C30.1248 49.2504 30.2302 49.5048 30.2302 49.77V60H34.5202V4H11.6602V60ZM16.3402 7.35H29.8402C30.1054 7.35 30.3597 7.45536 30.5473 7.64289C30.7348 7.83043 30.8402 8.08478 30.8402 8.35C30.8402 8.61522 30.7348 8.86957 30.5473 9.05711C30.3597 9.24464 30.1054 9.35 29.8402 9.35H16.3402C16.0749 9.35 15.8206 9.24464 15.633 9.05711C15.4455 8.86957 15.3402 8.61522 15.3402 8.35C15.3402 8.08478 15.4455 7.83043 15.633 7.64289C15.8206 7.45536 16.0749 7.35 16.3402 7.35ZM16.3402 14.13H29.8402C30.1054 14.13 30.3597 14.2354 30.5473 14.4229C30.7348 14.6104 30.8402 14.8648 30.8402 15.13C30.8402 15.3952 30.7348 15.6496 30.5473 15.8371C30.3597 16.0246 30.1054 16.13 29.8402 16.13H16.3402C16.0749 16.13 15.8206 16.0246 15.633 15.8371C15.4455 15.6496 15.3402 15.3952 15.3402 15.13C15.3402 14.8648 15.4455 14.6104 15.633 14.4229C15.8206 14.2354 16.0749 14.13 16.3402 14.13ZM16.3402 20.9H29.8402C30.1054 20.9 30.3597 21.0054 30.5473 21.1929C30.7348 21.3804 30.8402 21.6348 30.8402 21.9C30.8402 22.1652 30.7348 22.4196 30.5473 22.6071C30.3597 22.7946 30.1054 22.9 29.8402 22.9H16.3402C16.0749 22.9 15.8206 22.7946 15.633 22.6071C15.4455 22.4196 15.3402 22.1652 15.3402 21.9C15.3402 21.6348 15.4455 21.3804 15.633 21.1929C15.8206 21.0054 16.0749 20.9 16.3402 20.9ZM16.3402 27.68H29.8402C30.1054 27.68 30.3597 27.7854 30.5473 27.9729C30.7348 28.1604 30.8402 28.4148 30.8402 28.68C30.8402 28.9452 30.7348 29.1996 30.5473 29.3871C30.3597 29.5746 30.1054 29.68 29.8402 29.68H16.3402C16.0749 29.68 15.8206 29.5746 15.633 29.3871C15.4455 29.1996 15.3402 28.9452 15.3402 28.68C15.3402 28.4148 15.4455 28.1604 15.633 27.9729C15.8206 27.7854 16.0749 27.68 16.3402 27.68ZM16.3402 34H29.8402C30.1054 34 30.3597 34.1054 30.5473 34.2929C30.7348 34.4804 30.8402 34.7348 30.8402 35C30.8402 35.2652 30.7348 35.5196 30.5473 35.7071C30.3597 35.8946 30.1054 36 29.8402 36H16.3402C16.0749 36 15.8206 35.8946 15.633 35.7071C15.4455 35.5196 15.3402 35.2652 15.3402 35C15.3402 34.7348 15.4455 34.4804 15.633 34.2929C15.8206 34.1054 16.0749 34 16.3402 34ZM16.3402 40.32H29.8402C30.1054 40.32 30.3597 40.4254 30.5473 40.6129C30.7348 40.8004 30.8402 41.0548 30.8402 41.32C30.8402 41.5852 30.7348 41.8396 30.5473 42.0271C30.3597 42.2146 30.1054 42.32 29.8402 42.32H16.3402C16.0749 42.32 15.8206 42.2146 15.633 42.0271C15.4455 41.8396 15.3402 41.5852 15.3402 41.32C15.3402 41.0548 15.4455 40.8004 15.633 40.6129C15.8206 40.4254 16.0749 40.32 16.3402 40.32Z" fill="#7D39F0"/>
<path d="M44.71 50.7695H52.34V55.2595H44.71V50.7695Z" fill="#7D39F0"/>
<path d="M44.71 39.3496H52.34V43.8396H44.71V39.3496Z" fill="#7D39F0"/>
<path d="M52.3395 31.8608L36.5195 29.0508V60.0008H52.3395V57.2608H43.7095C43.4443 57.2608 43.19 57.1554 43.0024 56.9679C42.8149 56.7804 42.7095 56.526 42.7095 56.2608V49.7708C42.7095 49.5056 42.8149 49.2512 43.0024 49.0637C43.19 48.8761 43.4443 48.7708 43.7095 48.7708H52.3395V45.8408H43.7095C43.4443 45.8408 43.19 45.7354 43.0024 45.5479C42.8149 45.3604 42.7095 45.106 42.7095 44.8408V38.3508C42.7095 38.0856 42.8149 37.8312 43.0024 37.6437C43.19 37.4561 43.4443 37.3508 43.7095 37.3508H52.3395V31.8608Z" fill="#7D39F0" fill-opacity="0.47"/>
</svg>
