<svg width="46" height="34" viewBox="0 0 46 34" fill="none" xmlns="http://www.w3.org/2000/svg">
<mask id="path-1-inside-1_526_79" fill="white">
<path fill-rule="evenodd" clip-rule="evenodd" d="M42 34H4C1.791 34 0 32.209 0 30V8C0 5.791 1.791 4 4 4H5C5 2.896 5.896 2 7 2H9C10.104 2 11 2.896 11 4H13C13 4 14.125 3.875 15 3L17 1C17 1 17.781 0 19 0H27C28.312 0 29 1 29 1L31 3C31.875 3.875 33 4 33 4H42C44.209 4 46 5.791 46 8V30C46 32.209 44.209 34 42 34ZM44 8C44 6.896 43.104 6 42 6L32.779 5.987C32.474 5.954 30.89 5.718 29.586 4.414L27.456 2.284L27.352 2.133C27.352 2.133 27.196 2 27 2H19C18.847 2 18.625 2.178 18.576 2.231L18.501 2.327L16.414 4.413C15.109 5.718 13.525 5.953 13.221 5.986L9.07 5.992C9.046 5.994 9.023 6 9 6H7C6.986 6 6.974 5.996 6.96 5.996L4 6C2.896 6 2 6.896 2 8V30C2 31.104 2.896 32 4 32H42C43.104 32 44 31.104 44 30V8ZM23 30C16.925 30 12 25.075 12 19C12 12.925 16.925 8 23 8C29.075 8 34 12.925 34 19C34 25.075 29.075 30 23 30ZM23 10C18.029 10 14 14.029 14 19C14 23.971 18.029 28 23 28C27.971 28 32 23.971 32 19C32 14.029 27.971 10 23 10ZM23 24C20.238 24 18 21.762 18 19C18 16.238 20.238 14 23 14C25.762 14 28 16.238 28 19C28 21.762 25.762 24 23 24ZM23 16C21.344 16 20 17.344 20 19C20 20.657 21.344 22 23 22C24.657 22 26 20.657 26 19C26 17.344 24.657 16 23 16ZM9 12H5C4.447 12 4 11.553 4 11V9C4 8.448 4.447 8 5 8H9C9.553 8 10 8.448 10 9V11C10 11.553 9.553 12 9 12Z"/>
</mask>
<path fill-rule="evenodd" clip-rule="evenodd" d="M42 34H4C1.791 34 0 32.209 0 30V8C0 5.791 1.791 4 4 4H5C5 2.896 5.896 2 7 2H9C10.104 2 11 2.896 11 4H13C13 4 14.125 3.875 15 3L17 1C17 1 17.781 0 19 0H27C28.312 0 29 1 29 1L31 3C31.875 3.875 33 4 33 4H42C44.209 4 46 5.791 46 8V30C46 32.209 44.209 34 42 34ZM44 8C44 6.896 43.104 6 42 6L32.779 5.987C32.474 5.954 30.89 5.718 29.586 4.414L27.456 2.284L27.352 2.133C27.352 2.133 27.196 2 27 2H19C18.847 2 18.625 2.178 18.576 2.231L18.501 2.327L16.414 4.413C15.109 5.718 13.525 5.953 13.221 5.986L9.07 5.992C9.046 5.994 9.023 6 9 6H7C6.986 6 6.974 5.996 6.96 5.996L4 6C2.896 6 2 6.896 2 8V30C2 31.104 2.896 32 4 32H42C43.104 32 44 31.104 44 30V8ZM23 30C16.925 30 12 25.075 12 19C12 12.925 16.925 8 23 8C29.075 8 34 12.925 34 19C34 25.075 29.075 30 23 30ZM23 10C18.029 10 14 14.029 14 19C14 23.971 18.029 28 23 28C27.971 28 32 23.971 32 19C32 14.029 27.971 10 23 10ZM23 24C20.238 24 18 21.762 18 19C18 16.238 20.238 14 23 14C25.762 14 28 16.238 28 19C28 21.762 25.762 24 23 24ZM23 16C21.344 16 20 17.344 20 19C20 20.657 21.344 22 23 22C24.657 22 26 20.657 26 19C26 17.344 24.657 16 23 16ZM9 12H5C4.447 12 4 11.553 4 11V9C4 8.448 4.447 8 5 8H9C9.553 8 10 8.448 10 9V11C10 11.553 9.553 12 9 12Z" fill="#986DCD"/>
<path d="M5 4V8H9V4H5ZM11 4H7V8H11V4ZM13 4V8H13.2215L13.4417 7.97553L13 4ZM17 1L19.8284 3.82843L20.0017 3.65518L20.1525 3.46209L17 1ZM29 1L25.7046 3.26723L25.9124 3.56923L26.1716 3.82843L29 1ZM33 4L32.5583 7.97553L32.7785 8H33V4ZM42 6L41.9944 10H42V6ZM32.779 5.987L32.3487 9.96379L32.5604 9.9867L32.7734 9.987L32.779 5.987ZM29.586 4.414L32.4144 1.58557L32.4144 1.58557L29.586 4.414ZM27.456 2.284L24.1617 4.55289L24.3691 4.85395L24.6276 5.11243L27.456 2.284ZM27.352 2.133L30.6463 -0.135893L30.3477 -0.569392L29.9471 -0.910893L27.352 2.133ZM18.576 2.231L15.6389 -0.484421L15.5262 -0.362472L15.4239 -0.231596L18.576 2.231ZM18.501 2.327L21.3287 5.1561L21.5021 4.98279L21.6531 4.7896L18.501 2.327ZM16.414 4.413L13.5862 1.5839L13.5856 1.58457L16.414 4.413ZM13.221 5.986L13.2268 9.986L13.4404 9.98569L13.6527 9.96264L13.221 5.986ZM9.07 5.992L9.06422 1.992L8.90074 1.99224L8.73782 2.00582L9.07 5.992ZM6.96 5.996L6.96 1.996L6.9546 1.996L6.96 5.996ZM4 6L4 10L4.00541 10L4 6ZM42 30H4V38H42V30ZM4 30H-4C-4 34.4181 -0.418139 38 4 38V30ZM4 30V8H-4V30H4ZM4 8V0C-0.418139 0 -4 3.58186 -4 8H4ZM4 8H5V0H4V8ZM9 4C9 5.10514 8.10514 6 7 6V-2C3.68686 -2 1 0.686861 1 4H9ZM7 6H9V-2H7V6ZM9 6C7.89486 6 7 5.10514 7 4H15C15 0.686861 12.3131 -2 9 -2V6ZM11 8H13V0H11V8ZM13 4C13.4417 7.97553 13.4431 7.97539 13.4444 7.97524C13.4448 7.97519 13.4462 7.97504 13.4471 7.97494C13.4489 7.97473 13.4507 7.97452 13.4526 7.97431C13.4563 7.97389 13.4601 7.97346 13.4639 7.97301C13.4717 7.9721 13.4797 7.97114 13.4881 7.97012C13.5049 7.96806 13.5231 7.96576 13.5424 7.96317C13.5812 7.95799 13.6251 7.95167 13.6739 7.94397C13.7712 7.92861 13.8888 7.90758 14.0232 7.87894C14.2897 7.82214 14.6351 7.73267 15.0268 7.59167C15.7914 7.31641 16.8577 6.79917 17.8284 5.82843L12.1716 0.171573C12.2225 0.120686 12.2651 0.0924742 12.2864 0.079927C12.3064 0.0681414 12.3165 0.0647481 12.317 0.0645754C12.318 0.0642028 12.3275 0.0606696 12.3557 0.0546511C12.371 0.0514008 12.3938 0.0469758 12.4262 0.0418681C12.4425 0.0392976 12.4614 0.0365137 12.4833 0.0335961C12.4942 0.0321358 12.5059 0.030638 12.5184 0.0291136C12.5246 0.0283513 12.531 0.0275819 12.5377 0.0268068C12.541 0.0264192 12.5444 0.0260302 12.5478 0.0256398C12.5495 0.0254447 12.5513 0.0252492 12.553 0.0250534C12.5539 0.0249556 12.5552 0.024808 12.5556 0.0247594C12.557 0.0246123 12.5583 0.0244651 13 4ZM17.8284 5.82843L19.8284 3.82843L14.1716 -1.82843L12.1716 0.171573L17.8284 5.82843ZM17 1C20.1525 3.46209 20.1516 3.46325 20.1507 3.46441C20.1504 3.46479 20.1495 3.46595 20.1489 3.46671C20.1477 3.46824 20.1465 3.46976 20.1453 3.47127C20.1429 3.47428 20.1406 3.47725 20.1383 3.48017C20.1336 3.48602 20.1291 3.49168 20.1247 3.49717C20.116 3.50815 20.1076 3.51844 20.0997 3.52811C20.0838 3.5474 20.0695 3.56432 20.0566 3.57918C20.0311 3.60858 20.0098 3.63138 19.992 3.64952C19.9598 3.68227 19.9246 3.71416 19.8783 3.74742C19.8128 3.79454 19.5067 4 19 4V-4C17.2743 -4 15.9682 -3.29454 15.2074 -2.74742C14.8136 -2.46416 14.5069 -2.18227 14.2902 -1.96202C14.1801 -1.85013 14.0883 -1.74921 14.0153 -1.66511C13.9787 -1.62291 13.9464 -1.58451 13.9185 -1.55057C13.9045 -1.53358 13.8916 -1.51767 13.8798 -1.50291C13.8739 -1.49553 13.8683 -1.48843 13.8629 -1.48162C13.8602 -1.47822 13.8576 -1.47489 13.855 -1.47163C13.8537 -1.47001 13.8525 -1.4684 13.8512 -1.4668C13.8506 -1.46601 13.8497 -1.46483 13.8494 -1.46443C13.8484 -1.46326 13.8475 -1.46209 17 1ZM19 4H27V-4H19V4ZM27 4C26.5834 4 26.266 3.82951 26.1042 3.70915C26.0261 3.65101 25.9634 3.59082 25.9087 3.53051C25.8799 3.49874 25.8494 3.46259 25.8165 3.42052C25.7999 3.39932 25.7824 3.37619 25.7639 3.35086C25.7546 3.33819 25.745 3.32491 25.7352 3.311C25.7302 3.30404 25.7252 3.29692 25.7201 3.28963C25.7176 3.28598 25.715 3.2823 25.7124 3.27856C25.7111 3.2767 25.7098 3.27482 25.7085 3.27293C25.7079 3.27199 25.7069 3.27056 25.7066 3.27009C25.7056 3.26866 25.7046 3.26723 29 1C32.2954 -1.26723 32.2944 -1.26867 32.2934 -1.27011C32.2931 -1.2706 32.2921 -1.27205 32.2914 -1.27302C32.2901 -1.27497 32.2887 -1.27694 32.2873 -1.27893C32.2846 -1.2829 32.2817 -1.28695 32.2789 -1.29108C32.2731 -1.29933 32.2671 -1.30789 32.2608 -1.31674C32.2483 -1.33443 32.2347 -1.35332 32.22 -1.37333C32.1908 -1.4133 32.1572 -1.45791 32.1193 -1.50645C32.0436 -1.60321 31.9491 -1.71749 31.8353 -1.84301C31.6106 -2.09082 31.2939 -2.40101 30.8798 -2.70915C30.046 -3.32951 28.7286 -4 27 -4V4ZM26.1716 3.82843L28.1716 5.82843L33.8284 0.171573L31.8284 -1.82843L26.1716 3.82843ZM28.1716 5.82843C29.1423 6.79917 30.2086 7.31641 30.9732 7.59167C31.3649 7.73267 31.7103 7.82214 31.9768 7.87894C32.1112 7.90758 32.2288 7.92861 32.3261 7.94397C32.3749 7.95167 32.4188 7.95799 32.4576 7.96317C32.4769 7.96576 32.4951 7.96806 32.5119 7.97012C32.5203 7.97114 32.5283 7.9721 32.5361 7.97301C32.5399 7.97346 32.5437 7.97389 32.5474 7.97431C32.5493 7.97452 32.5511 7.97473 32.5529 7.97494C32.5538 7.97504 32.5552 7.97519 32.5556 7.97524C32.5569 7.97539 32.5583 7.97553 33 4C33.4417 0.0244651 33.443 0.0246123 33.4444 0.0247594C33.4448 0.024808 33.4461 0.0249556 33.447 0.0250534C33.4487 0.0252492 33.4505 0.0254447 33.4522 0.0256398C33.4556 0.0260302 33.459 0.0264192 33.4623 0.0268068C33.469 0.0275819 33.4754 0.0283513 33.4816 0.0291136C33.4941 0.030638 33.5058 0.0321358 33.5167 0.0335961C33.5386 0.0365137 33.5575 0.0392976 33.5738 0.0418681C33.6062 0.0469758 33.629 0.0514008 33.6443 0.0546511C33.6725 0.0606696 33.682 0.0642028 33.683 0.0645754C33.6835 0.0647481 33.6936 0.0681414 33.7136 0.079927C33.7349 0.0924742 33.7775 0.120686 33.8284 0.171573L28.1716 5.82843ZM33 8H42V0H33V8ZM42 8H50C50 3.58186 46.4181 0 42 0V8ZM42 8V30H50V8H42ZM42 30V38C46.4181 38 50 34.4181 50 30H42ZM48 8C48 4.68686 45.3131 2 42 2V10C40.8949 10 40 9.10514 40 8H48ZM42.0056 2L32.7846 1.987L32.7734 9.987L41.9944 10L42.0056 2ZM33.2093 2.01021C33.3042 2.02048 33.1786 2.01397 32.9737 1.93637C32.7743 1.86085 32.5766 1.74771 32.4144 1.58557L26.7576 7.24243C29.0039 9.48873 31.6688 9.89022 32.3487 9.96379L33.2093 2.01021ZM32.4144 1.58557L30.2844 -0.544428L24.6276 5.11243L26.7576 7.24243L32.4144 1.58557ZM30.7503 0.0151071L30.6463 -0.135893L24.0577 4.40189L24.1617 4.55289L30.7503 0.0151071ZM27.352 2.133C29.9471 -0.910893 29.9462 -0.91168 29.9453 -0.912468C29.945 -0.912731 29.944 -0.913521 29.9434 -0.914048C29.9422 -0.915104 29.9409 -0.916164 29.9397 -0.917227C29.9372 -0.919354 29.9346 -0.921497 29.9321 -0.923655C29.927 -0.927971 29.9218 -0.932349 29.9165 -0.936787C29.9058 -0.945661 29.8948 -0.954787 29.8834 -0.964144C29.8605 -0.98284 29.8359 -1.00256 29.8097 -1.02312C29.7573 -1.06407 29.6971 -1.10929 29.6293 -1.15709C29.4964 -1.25075 29.3203 -1.36435 29.105 -1.47709C28.7147 -1.68146 27.9741 -2 27 -2V6C26.2219 6 25.6573 5.74796 25.394 5.6101C25.2422 5.5306 25.1174 5.45025 25.0199 5.38152C24.9698 5.3462 24.9232 5.31137 24.8802 5.27769C24.8585 5.26077 24.8375 5.24391 24.817 5.22716C24.8068 5.21877 24.7967 5.2104 24.7866 5.20202C24.7816 5.19784 24.7766 5.19365 24.7717 5.18946C24.7692 5.18737 24.7667 5.18527 24.7643 5.18318C24.763 5.18213 24.7618 5.18108 24.7606 5.18004C24.7599 5.17951 24.759 5.17873 24.7587 5.17847C24.7578 5.17768 24.7569 5.17689 27.352 2.133ZM27 -2H19V6H27V-2ZM19 -2C17.6935 -2 16.7566 -1.37724 16.6093 -1.28397C16.3247 -1.1038 15.9618 -0.833684 15.6389 -0.484421L21.5131 4.94642C21.3329 5.14131 21.1837 5.26114 21.1443 5.2927C21.0734 5.3496 20.9895 5.41139 20.8887 5.47522C20.7963 5.53375 20.6236 5.63615 20.3823 5.73424C20.1778 5.81736 19.6794 6 19 6V-2ZM15.4239 -0.231596L15.3489 -0.135597L21.6531 4.7896L21.7281 4.6936L15.4239 -0.231596ZM15.6732 -0.502105L13.5862 1.5839L19.2417 7.2421L21.3287 5.1561L15.6732 -0.502105ZM13.5856 1.58457C13.423 1.74713 13.2252 1.86016 13.0262 1.93548C12.822 2.01278 12.6965 2.01944 12.7893 2.00936L13.6527 9.96264C14.3286 9.88926 16.9944 9.48943 19.2424 7.24143L13.5856 1.58457ZM13.2152 1.986L9.06422 1.992L9.07578 9.992L13.2268 9.986L13.2152 1.986ZM8.73782 2.00582C8.62294 2.01539 8.53155 2.02784 8.48499 2.03451C8.46135 2.0379 8.44222 2.04083 8.4359 2.04181C8.42336 2.04373 8.4341 2.04208 8.43915 2.04132C8.45336 2.03918 8.52 2.02909 8.60748 2.02008C8.69809 2.01075 8.83401 2 9 2V10C9.17749 10 9.32491 9.9885 9.42705 9.97799C9.52606 9.96779 9.60427 9.95607 9.6301 9.95218C9.64096 9.95054 9.65754 9.94798 9.65084 9.94901C9.65036 9.94909 9.6371 9.95114 9.61935 9.95368C9.58457 9.95866 9.50506 9.96961 9.40218 9.97818L8.73782 2.00582ZM9 2H7V10H9V2ZM7 2C7.18682 2 7.33952 2.01342 7.43974 2.02476C7.48936 2.03038 7.52919 2.03587 7.55318 2.03931C7.56536 2.04106 7.57506 2.04251 7.58063 2.04336C7.58565 2.04411 7.58983 2.04476 7.58819 2.04451C7.58799 2.04448 7.58633 2.04422 7.58447 2.04394C7.58247 2.04363 7.57942 2.04316 7.57576 2.04261C7.56855 2.04152 7.55723 2.03982 7.54342 2.03784C7.51616 2.03393 7.47305 2.028 7.42011 2.02201C7.31327 2.00992 7.15382 1.996 6.96 1.996V9.996C6.77318 9.996 6.62048 9.98258 6.52026 9.97124C6.47064 9.96562 6.43081 9.96013 6.40682 9.95669C6.39464 9.95494 6.38494 9.95349 6.37937 9.95264C6.37435 9.95189 6.37017 9.95124 6.37181 9.95149C6.37201 9.95152 6.37367 9.95178 6.37553 9.95206C6.37753 9.95237 6.38058 9.95284 6.38424 9.95339C6.39145 9.95448 6.40277 9.95618 6.41658 9.95816C6.44384 9.96207 6.48695 9.968 6.53989 9.97399C6.64673 9.98608 6.80618 10 7 10V2ZM6.9546 1.996L3.99459 2L4.00541 10L6.96541 9.996L6.9546 1.996ZM4 2C0.686861 2 -2 4.68686 -2 8H6C6 9.10514 5.10514 10 4 10V2ZM-2 8V30H6V8H-2ZM-2 30C-2 33.3131 0.686861 36 4 36V28C5.10514 28 6 28.8949 6 30H-2ZM4 36H42V28H4V36ZM42 36C45.3131 36 48 33.3131 48 30H40C40 28.8949 40.8949 28 42 28V36ZM48 30V8H40V30H48ZM23 26C19.1341 26 16 22.8659 16 19H8C8 27.2841 14.7159 34 23 34V26ZM16 19C16 15.1341 19.1341 12 23 12V4C14.7159 4 8 10.7159 8 19H16ZM23 12C26.8659 12 30 15.1341 30 19H38C38 10.7159 31.2841 4 23 4V12ZM30 19C30 22.8659 26.8659 26 23 26V34C31.2841 34 38 27.2841 38 19H30ZM23 6C15.8199 6 10 11.8199 10 19H18C18 16.2381 20.2381 14 23 14V6ZM10 19C10 26.1801 15.8199 32 23 32V24C20.2381 24 18 21.7619 18 19H10ZM23 32C30.1801 32 36 26.1801 36 19H28C28 21.7619 25.7619 24 23 24V32ZM36 19C36 11.8199 30.1801 6 23 6V14C25.7619 14 28 16.2381 28 19H36ZM23 20C22.4471 20 22 19.5529 22 19H14C14 23.9711 18.0289 28 23 28V20ZM22 19C22 18.4471 22.4471 18 23 18V10C18.0289 10 14 14.0289 14 19H22ZM23 18C23.5529 18 24 18.4471 24 19H32C32 14.0289 27.9711 10 23 10V18ZM24 19C24 19.5529 23.5529 20 23 20V28C27.9711 28 32 23.9711 32 19H24ZM23 12C19.1349 12 16 15.1349 16 19H24C24 19.5531 23.5531 20 23 20V12ZM16 19C16 22.867 19.1357 26 23 26V18C23.5523 18 24 18.447 24 19H16ZM23 26C26.8661 26 30 22.8661 30 19H22C22 18.4479 22.4479 18 23 18V26ZM30 19C30 15.1357 26.867 12 23 12V20C22.447 20 22 19.5523 22 19H30ZM9 8H5V16H9V8ZM5 8C6.65614 8 8 9.34386 8 11H0C0 13.7621 2.23786 16 5 16V8ZM8 11V9H0V11H8ZM8 9C8 10.6545 6.65874 12 5 12V4C2.23526 4 0 6.24147 0 9H8ZM5 12H9V4H5V12ZM9 12C7.34126 12 6 10.6545 6 9H14C14 6.24147 11.7647 4 9 4V12ZM6 9V11H14V9H6ZM6 11C6 9.34386 7.34386 8 9 8V16C11.7621 16 14 13.7621 14 11H6Z" fill="#986DCD" mask="url(#path-1-inside-1_526_79)"/>
</svg>
