<svg xmlns="http://www.w3.org/2000/svg" version="1.1" xmlns:xlink="http://www.w3.org/1999/xlink" width="512" height="512" x="0" y="0" viewBox="0 0 32 32" style="enable-background:new 0 0 512 512" xml:space="preserve" class=""><g><path d="m31.498 23.128-.959-.844v-3.708a2.382 2.382 0 0 0-4.722-.445h-.001l-.821-.721a2.53 2.53 0 0 0-3.332 0l-6.5 5.717a.748.748 0 0 0 .957 1.146v5.326a2.152 2.152 0 0 0 2.15 2.15h10.12a2.151 2.151 0 0 0 2.149-2.15v-5.327a.747.747 0 0 0 .959-1.144zm-6.852 7.119h-2.5v-1.748a1.111 1.111 0 0 1 1.11-1.11h.285a1.111 1.111 0 0 1 1.11 1.11zm4.393-.65a.65.65 0 0 1-.648.65h-2.245v-1.748a2.613 2.613 0 0 0-2.61-2.61h-.285a2.613 2.613 0 0 0-2.61 2.61v1.746h-2.373a.651.651 0 0 1-.65-.65v-6.63l5.035-4.428a1.026 1.026 0 0 1 1.352 0l5.034 4.426zm0-11.021v2.389l-1.767-1.554v-.835a.884.884 0 1 1 1.767 0z" fill="#ffffff" opacity="1" data-original="#000000"></path><path d="M23.329 20.099a2.218 2.218 0 1 0 .004 0h-.004zm.719 2.216a.72.72 0 1 1-.72-.718h.001a.72.72 0 0 1 .719.718z" fill="#ffffff" opacity="1" data-original="#000000"></path><path d="M13.705 30.24H4.172a2.419 2.419 0 0 1-2.415-2.416V4.166a2.419 2.419 0 0 1 2.415-2.415h21.671a2.419 2.419 0 0 1 2.415 2.415v9.449a.75.75 0 0 0 1.5 0V4.166A3.92 3.92 0 0 0 25.843.251H4.172A3.92 3.92 0 0 0 .257 4.166v23.658a3.92 3.92 0 0 0 3.915 3.916h9.533a.75.75 0 0 0 0-1.5z" fill="#ffffff" opacity="1" data-original="#000000"></path><path d="M22.955 7.78a.75.75 0 0 0-.75-.75H7.317a.75.75 0 0 0 0 1.5h14.888a.75.75 0 0 0 .75-.75zM19.283 13.599a.75.75 0 0 0-.75-.75H7.317a.75.75 0 0 0 0 1.5h11.216a.75.75 0 0 0 .75-.75zM7.317 18.666a.75.75 0 0 0 0 1.5h4.578a.75.75 0 0 0 0-1.5z" fill="#ffffff" opacity="1" data-original="#000000"></path></g></svg>