<svg width="512" height="512" viewBox="0 0 512 512" fill="none" xmlns="http://www.w3.org/2000/svg">
<path d="M474.319 218.72L415.919 168.72V74.9598C415.913 72.84 415.068 70.8088 413.569 69.3099C412.07 67.811 410.039 66.9661 407.919 66.9598H348.239C346.119 66.9659 344.088 67.8107 342.589 69.3097C341.09 70.8086 340.245 72.8399 340.239 74.9598V103.84L282.559 54.3998C275.184 48.0145 265.755 44.5 255.999 44.5C246.244 44.5 236.815 48.0145 229.439 54.3998L37.6792 218.72C35.2139 220.902 33.4656 223.778 32.6637 226.971C31.8618 230.165 32.0438 233.526 33.1857 236.614C34.3276 239.702 36.3762 242.372 39.0627 244.276C41.7493 246.179 44.9483 247.226 48.2403 247.279L96.0792 247.28V398.64C96.0872 416.87 103.327 434.353 116.211 447.252C129.094 460.15 146.569 467.411 164.799 467.44H265.839C172.975 368.513 286.098 216.916 407.361 277.601C410.307 279.057 413.165 280.687 415.919 282.48V247.28H463.759C467.051 247.227 470.251 246.18 472.938 244.277C475.625 242.374 477.673 239.703 478.815 236.614C479.957 233.526 480.139 230.165 479.336 226.971C478.534 223.778 476.785 220.902 474.319 218.72Z" fill="#986DCD"/>
<path d="M415.92 302C410.941 298.063 405.581 294.633 399.92 291.76C385.138 284.008 368.691 279.972 352 280C332.134 279.992 312.682 285.676 295.946 296.38C279.21 307.083 265.892 322.358 257.567 340.396C249.243 358.434 246.261 378.479 248.975 398.159C251.688 417.839 259.984 436.329 272.88 451.44C277.304 456.638 282.235 461.381 287.6 465.6C298.337 474.079 310.642 480.356 323.81 484.07C336.977 487.784 350.748 488.862 364.334 487.243C377.919 485.624 391.051 481.34 402.977 474.635C414.903 467.931 425.388 458.938 433.832 448.173C442.276 437.408 448.511 425.083 452.182 411.903C455.852 398.723 456.885 384.948 455.221 371.368C453.556 357.789 449.228 344.671 442.484 332.767C435.74 320.863 426.713 310.408 415.92 302ZM392 392H360V424C360 426.122 359.157 428.157 357.657 429.657C356.157 431.157 354.122 432 352 432C349.878 432 347.844 431.157 346.343 429.657C344.843 428.157 344 426.122 344 424V392H312C309.878 392 307.844 391.157 306.343 389.657C304.843 388.157 304 386.122 304 384C304 381.878 304.843 379.844 306.343 378.343C307.844 376.843 309.878 376 312 376H344V344C344 341.878 344.843 339.844 346.343 338.343C347.844 336.843 349.878 336 352 336C354.122 336 356.157 336.843 357.657 338.343C359.157 339.844 360 341.878 360 344V376H392C394.122 376 396.157 376.843 397.657 378.343C399.157 379.844 400 381.878 400 384C400 386.122 399.157 388.157 397.657 389.657C396.157 391.157 394.122 392 392 392Z" fill="#986DCD"/>
</svg>
