<svg width="512" height="512" viewBox="0 0 512 512" fill="none" xmlns="http://www.w3.org/2000/svg">
<path fill-rule="evenodd" clip-rule="evenodd" d="M255.999 222.87C333.631 222.87 396.564 285.803 396.564 363.435C396.564 441.067 333.631 504 255.999 504C178.367 504 115.434 441.067 115.434 363.435C115.434 285.803 178.367 222.87 255.999 222.87ZM113.126 116.894C112.255 115.869 111.096 115.332 109.751 115.332C108.405 115.332 107.247 115.867 106.375 116.894L45.4031 188.705C44.2601 190.051 44.0181 191.828 44.7601 193.431C45.5011 195.034 47.0131 196 48.7791 196H77.1761V290.312C77.1761 295.19 81.1551 299.169 86.0331 299.169H113.19C120.444 283.076 130.34 268.43 142.323 255.782V196H170.721C172.486 196 173.998 195.034 174.74 193.431C175.482 191.829 175.24 190.051 174.097 188.705L113.126 116.894ZM405.623 9.562C404.752 8.536 403.594 8 402.248 8C400.902 8 399.744 8.536 398.872 9.562L337.9 81.373C336.757 82.719 336.516 84.497 337.257 86.099C337.999 87.702 339.51 88.668 341.276 88.668H369.674V255.781C381.657 268.43 391.553 283.075 398.807 299.169H425.964C430.842 299.169 434.821 295.19 434.821 290.312V88.668H463.219C464.985 88.668 466.496 87.702 467.238 86.099C467.98 84.497 467.738 82.719 466.595 81.373L405.623 9.562ZM259.374 63.229C279.698 87.166 300.021 111.103 320.345 135.04C321.488 136.386 321.73 138.163 320.988 139.766C320.246 141.369 318.735 142.335 316.968 142.335C307.502 142.335 298.036 142.335 288.571 142.335V210.273C278.063 208.049 267.169 206.87 255.998 206.87C244.827 206.87 233.933 208.049 223.424 210.273V142.334C213.958 142.334 204.492 142.334 195.026 142.334C193.261 142.334 191.749 141.368 191.007 139.765C190.265 138.163 190.507 136.385 191.65 135.039C211.974 111.102 232.298 87.165 252.621 63.228C253.492 62.202 254.651 61.665 255.997 61.665C257.345 61.666 258.504 62.203 259.374 63.229ZM213.47 436.971L313.083 298.238C315.654 294.665 314.843 289.684 311.271 287.113C307.698 284.542 302.717 285.353 300.146 288.926L200.533 427.659C197.962 431.232 198.773 436.213 202.345 438.784C205.917 441.355 210.898 440.544 213.47 436.971ZM236.392 288.476C223.598 275.691 202.578 275.732 189.801 288.518C177.017 301.311 177.057 322.333 189.843 335.109C202.722 347.979 223.573 347.936 236.434 335.067C249.304 322.188 249.26 301.336 236.392 288.476ZM321.807 391.704C309.093 379 288.204 379.04 275.508 391.746C262.804 404.459 262.844 425.349 275.55 438.046C288.263 450.75 309.153 450.709 321.85 438.004C334.554 425.291 334.512 404.4 321.807 391.704ZM311.149 402.422C304.298 395.575 293.079 395.545 286.225 402.405C279.378 409.256 279.349 420.474 286.208 427.329C293.059 434.175 304.278 434.205 311.132 427.346C317.978 420.494 318.008 409.276 311.149 402.422ZM225.666 299.26C218.772 292.37 207.483 292.34 200.585 299.243C193.695 306.137 193.665 317.426 200.568 324.324C207.483 331.234 218.73 331.265 225.649 324.341C232.563 317.422 232.594 306.184 225.666 299.26Z" fill="#7D39F0"/>
</svg>
