<svg width="28" height="28" viewBox="0 0 28 28" fill="none" xmlns="http://www.w3.org/2000/svg">
<path d="M25.0016 7.99974C24.8342 7.99946 24.6697 7.9572 24.5229 7.87684C24.3762 7.79647 24.2519 7.68057 24.1616 7.53974C23.7889 7.01847 23.3883 6.51774 22.9616 6.03974C22.8624 5.94291 22.7844 5.82652 22.7326 5.69795C22.6808 5.56939 22.6563 5.43145 22.6606 5.29291C22.665 5.15437 22.6981 5.01824 22.7578 4.89317C22.8176 4.7681 22.9027 4.65682 23.0077 4.56638C23.1128 4.47595 23.2355 4.40834 23.368 4.36784C23.5006 4.32735 23.6401 4.31486 23.7778 4.33116C23.9154 4.34746 24.0482 4.3922 24.1676 4.46254C24.287 4.53287 24.3906 4.62727 24.4716 4.73974C24.9617 5.2882 25.4224 5.86234 25.8516 6.45974C25.9218 6.5707 25.9696 6.69442 25.992 6.82383C26.0145 6.95324 26.0112 7.0858 25.9824 7.21395C25.9536 7.3421 25.8999 7.46333 25.8242 7.5707C25.7486 7.67807 25.6525 7.76949 25.5416 7.83974C25.3806 7.94371 25.1932 7.99924 25.0016 7.99974Z" fill="#986DCD"/>
<path d="M14.0014 28C11.8132 27.999 9.65573 27.4851 7.70209 26.4995C5.74844 25.5139 4.05302 24.0842 2.75186 22.3249C1.45071 20.5656 0.580043 18.5258 0.209741 16.3692C-0.160562 14.2126 -0.0201938 11.9992 0.619582 9.90668C1.25936 7.81414 2.38073 5.90069 3.89371 4.31988C5.40668 2.73907 7.26915 1.53491 9.33164 0.80404C11.3941 0.0731657 13.5992 -0.164077 15.77 0.111349C17.9408 0.386775 20.0167 1.1672 21.8314 2.39C22.0515 2.53852 22.2036 2.76841 22.2542 3.02908C22.3049 3.28976 22.2499 3.55987 22.1014 3.78C21.9528 4.00013 21.723 4.15224 21.4623 4.20288C21.2016 4.25351 20.9315 4.19852 20.7114 4.05C18.4916 2.55288 15.835 1.8411 13.1641 2.02791C10.4932 2.21471 7.96154 3.28937 5.97183 5.08089C3.98212 6.87242 2.6487 9.2779 2.18371 11.9146C1.71873 14.5513 2.14889 17.2678 3.40576 19.6319C4.66264 21.996 6.67402 23.8718 9.11989 24.9609C11.5658 26.0501 14.3056 26.29 16.9035 25.6424C19.5015 24.9949 21.8082 23.4972 23.4568 21.3875C25.1054 19.2778 26.0011 16.6774 26.0014 14C26.0014 13.7348 26.1067 13.4804 26.2943 13.2929C26.4818 13.1054 26.7361 13 27.0014 13C27.2666 13 27.5209 13.1054 27.7085 13.2929C27.896 13.4804 28.0014 13.7348 28.0014 14C28.0014 17.713 26.5264 21.274 23.9009 23.8995C21.2753 26.525 17.7144 28 14.0014 28Z" fill="#986DCD"/>
<path d="M11 12H7C6.73478 12 6.48043 11.8946 6.29289 11.7071C6.10536 11.5196 6 11.2652 6 11C6 10.7348 6.10536 10.4804 6.29289 10.2929C6.48043 10.1054 6.73478 10 7 10H11C11.2652 10 11.5196 10.1054 11.7071 10.2929C11.8946 10.4804 12 10.7348 12 11C12 11.2652 11.8946 11.5196 11.7071 11.7071C11.5196 11.8946 11.2652 12 11 12Z" fill="#986DCD"/>
<path d="M21 12H17C16.7348 12 16.4804 11.8946 16.2929 11.7071C16.1054 11.5196 16 11.2652 16 11C16 10.7348 16.1054 10.4804 16.2929 10.2929C16.4804 10.1054 16.7348 10 17 10H21C21.2652 10 21.5196 10.1054 21.7071 10.2929C21.8946 10.4804 22 10.7348 22 11C22 11.2652 21.8946 11.5196 21.7071 11.7071C21.5196 11.8946 21.2652 12 21 12Z" fill="#986DCD"/>
<path d="M21 20H7C6.73478 20 6.48043 19.8946 6.29289 19.7071C6.10536 19.5196 6 19.2652 6 19C6 18.7348 6.10536 18.4804 6.29289 18.2929C6.48043 18.1054 6.73478 18 7 18H21C21.2652 18 21.5196 18.1054 21.7071 18.2929C21.8946 18.4804 22 18.7348 22 19C22 19.2652 21.8946 19.5196 21.7071 19.7071C21.5196 19.8946 21.2652 20 21 20Z" fill="#986DCD"/>
</svg>
