<svg width="512" height="512" viewBox="0 0 512 512" fill="none" xmlns="http://www.w3.org/2000/svg">
<path d="M280.403 29.6958V39.0823C271.188 37.7167 261.118 37.0344 250.537 37.0344C239.956 37.0344 230.057 37.7167 220.841 39.0823V29.6958C220.841 13.3114 234.152 0 250.537 0C267.092 0 280.403 13.3114 280.403 29.6958ZM196.777 474.795C204.969 496.64 225.961 512 250.537 512C275.113 512 296.275 496.64 304.468 474.795H196.777ZM445.071 401.359H56.1224C40.5922 401.359 28.1328 413.989 28.1328 429.519C28.1328 445.05 40.5922 457.679 56.1224 457.679H445.071C460.432 457.679 473.061 445.05 473.061 429.519C473.061 413.989 460.432 401.359 445.071 401.359ZM438.441 384.341H62.6326C74.068 363.349 86.3555 336.554 91.9878 294.4C108.03 175.104 114.003 54.101 250.537 54.101C291.155 54.101 320.34 64.8531 341.502 83.1146H337.918C322.899 83.1146 309.588 92.8426 304.979 107.007L300.03 122.197L287.23 131.583C275.113 140.288 269.993 155.819 274.601 170.154L279.55 185.515L274.601 200.362C269.993 214.698 275.113 230.229 287.23 239.104L300.201 248.491L304.979 263.509C309.588 277.845 322.899 287.402 337.918 287.402H353.961L366.59 296.79C372.564 301.056 379.561 303.274 386.899 303.274C394.238 303.274 401.407 301.056 407.209 296.79L409.427 295.253C415.06 336.896 427.007 363.52 438.441 384.341ZM147.966 246.783C148.478 238.933 144.041 232.448 138.238 232.106C132.436 231.765 127.316 237.739 126.974 245.59C126.462 253.44 130.899 259.925 136.702 260.267C142.504 260.607 147.625 254.464 147.966 246.783ZM151.55 160.085C141.651 158.378 131.412 168.79 128.681 183.467C125.95 197.973 131.923 211.456 141.993 213.163C151.892 215.04 162.132 204.629 164.862 189.952C167.593 175.274 161.619 161.962 151.55 160.085ZM482.985 205.653C485.374 212.821 482.814 220.843 476.67 225.28L463.87 234.496C460.969 236.715 458.75 239.786 457.556 243.2L452.607 258.219C450.388 265.386 443.561 270.335 436.051 270.335H420.35C416.595 270.335 413.012 271.53 409.94 273.749L397.311 282.964C391.166 287.402 382.803 287.402 376.66 282.964L363.86 273.749C360.959 271.53 357.374 270.335 353.619 270.335H337.918C330.238 270.335 323.583 265.386 321.193 258.219L316.414 243.2C315.219 239.786 313.001 236.715 310.099 234.496L297.299 225.28C291.156 220.843 288.595 212.821 290.985 205.653L295.764 190.634C296.959 187.221 296.959 183.467 295.764 179.882L290.985 164.864C288.595 157.696 291.156 149.845 297.299 145.407L310.099 136.021C313.001 133.973 315.219 130.901 316.414 127.317L321.193 112.298C323.583 105.13 330.238 100.181 337.918 100.181H353.619C357.374 100.181 360.959 99.1574 363.86 96.9386L376.66 87.723C382.804 83.1147 391.166 83.1147 397.311 87.723L409.94 96.9386C413.012 99.1574 416.595 100.181 420.35 100.181H436.051C443.561 100.181 450.388 105.13 452.607 112.298L457.556 127.317C458.75 130.901 460.969 133.973 463.87 136.021L476.67 145.407C482.814 149.845 485.374 157.696 482.985 164.864L478.207 179.882C477.012 183.467 477.012 187.221 478.207 190.634L482.985 205.653ZM349.865 150.016C349.865 156.501 355.156 161.792 361.641 161.792C368.126 161.792 373.246 156.501 373.246 150.016C373.246 143.53 368.126 138.41 361.641 138.41C355.156 138.41 349.865 143.53 349.865 150.016ZM420.692 141.311C422.911 137.216 421.374 131.925 417.279 129.706C413.183 127.488 408.062 129.024 405.673 133.12L353.278 229.376C350.889 233.472 352.425 238.592 356.692 240.981C357.886 241.664 359.251 242.005 360.617 242.005C363.689 242.005 366.59 240.298 368.126 237.568L420.692 141.311ZM424.104 220.501C424.104 214.016 418.814 208.896 412.328 208.896C405.844 208.896 400.552 214.016 400.552 220.501C400.552 226.986 405.844 232.277 412.328 232.277C418.814 232.277 424.104 226.986 424.104 220.501Z" fill="#7D39F0"/>
</svg>
