<svg xmlns="http://www.w3.org/2000/svg" version="1.1" xmlns:xlink="http://www.w3.org/1999/xlink" width="512" height="512" x="0" y="0" viewBox="0 0 90 90" style="enable-background:new 0 0 512 512" xml:space="preserve" class=""><g><path d="m45.008 7.949 32.191 25.792c1.809 1.448 1.693 3.183.818 4.281-1.109 1.402-2.729 1.213-3.828.333L45.836 15.659a1.329 1.329 0 0 0-1.656 0L15.83 38.356c-1.5 1.198-2.786.844-3.833-.333-.938-1.047-.983-2.833.817-4.281zm-.828-2.733L11.165 31.684c-2.76 2.213-2.865 5.682-1.328 7.86.766 1.088 1.932 1.911 3.322 2.15 1.391.235 2.953-.172 4.323-1.27l27.526-22.042 26.566 21.271v7.791c0 1.767 2.652 1.767 2.652 0v-6.047c.891.344 1.791.438 2.635.297 1.391-.24 2.557-1.063 3.322-2.15 1.531-2.178 1.434-5.647-1.328-7.86L45.836 5.216c-.625-.5-1.156-.396-1.656 0z" fill="#986dcd" opacity="1" data-original="#000000" class=""></path><path d="M45.915 42.122c-4.542 0-8.25 3.688-8.25 8.224V72.58H18.44V45.892c0-1.765-2.65-1.765-2.65 0v28.005c0 .735.594 1.328 1.322 1.328h21.875a1.317 1.317 0 0 0 1.328-1.328V50.345c0-3.109 2.469-5.583 5.6-5.583 3.134 0 5.603 2.473 5.603 5.583v6.797c0 1.766 2.65 1.766 2.65 0v-6.797c0-4.536-3.707-8.223-8.253-8.223z" fill="#986dcd" opacity="1" data-original="#000000" class=""></path><g fill-rule="evenodd" clip-rule="evenodd"><path d="M63.893 54.315H74.84v10.958L58.59 81.517 47.637 70.569zm-.547-2.642c-.35 0-.688.136-.938.385L44.831 69.632a1.322 1.322 0 0 0 0 1.869l12.822 12.824a1.337 1.337 0 0 0 1.871 0l17.572-17.579c.25-.246.391-.579.391-.932V52.997a1.32 1.32 0 0 0-1.328-1.324z" fill="#986dcd" opacity="1" data-original="#000000" class=""></path><path d="M68.127 59.366c.912 0 1.635.725 1.635 1.667 0 .943-.723 1.662-1.635 1.662-.906 0-1.631-.719-1.631-1.662 0-.942.725-1.667 1.631-1.667zm0-2.645c-2.354 0-4.281 1.958-4.281 4.312 0 2.355 1.928 4.302 4.281 4.302s4.275-1.947 4.275-4.302c0-2.354-1.922-4.312-4.275-4.312z" fill="#986dcd" opacity="1" data-original="#000000" class=""></path></g></g></svg>