<svg xmlns="http://www.w3.org/2000/svg" version="1.1" xmlns:xlink="http://www.w3.org/1999/xlink" width="512" height="512" x="0" y="0" viewBox="0 0 60 60" style="enable-background:new 0 0 512 512" xml:space="preserve" class=""><g><path fill="#b792f0" d="M23 16V8a7 7 0 1 1 14 0v2a1 1 0 0 1-1 1h-2a1 1 0 0 1-1-1V8a3 3 0 0 0-6 0v8z" opacity="1" data-original="#a6a6bc" class=""></path><rect width="24" height="24" x="18" y="15" fill="#7d37eb" rx="3" opacity="1" data-original="#f4bc2f" class=""></rect><rect width="58" height="16" x="1" y="43" fill="#b792f0" rx="3" opacity="1" data-original="#333387" class=""></rect><g fill="#fff"><path d="M27.777 32a1 1 0 0 1-.707-.293l-1.777-1.777a1 1 0 0 1 1.414-1.414l.977.976 5.527-7.106a1 1 0 0 1 1.578 1.228l-6.223 8a.994.994 0 0 1-.726.386zM32.707 48.293a1 1 0 0 0-1.414 0L30 49.586l-1.293-1.293a1 1 0 0 0-1.414 1.414L28.586 51l-1.293 1.293a1 1 0 1 0 1.414 1.414L30 52.414l1.293 1.293a1 1 0 0 0 1.414-1.414L31.414 51l1.293-1.293a1 1 0 0 0 0-1.414zM22.707 48.293a1 1 0 0 0-1.414 0L20 49.586l-1.293-1.293a1 1 0 0 0-1.414 1.414L18.586 51l-1.293 1.293a1 1 0 1 0 1.414 1.414L20 52.414l1.293 1.293a1 1 0 0 0 1.414-1.414L21.414 51l1.293-1.293a1 1 0 0 0 0-1.414zM12.707 48.293a1 1 0 0 0-1.414 0L10 49.586l-1.293-1.293a1 1 0 1 0-1.414 1.414L8.586 51l-1.293 1.293a1 1 0 1 0 1.414 1.414L10 52.414l1.293 1.293a1 1 0 0 0 1.414-1.414L11.414 51l1.293-1.293a1 1 0 0 0 0-1.414zM51.414 51l1.293-1.293a1 1 0 0 0-1.414-1.414L50 49.586l-1.293-1.293a1 1 0 0 0-1.414 1.414L48.586 51l-1.293 1.293a1 1 0 1 0 1.414 1.414L50 52.414l1.293 1.293a1 1 0 0 0 1.414-1.414zM42.707 48.293a1 1 0 0 0-1.414 0L40 49.586l-1.293-1.293a1 1 0 0 0-1.414 1.414L38.586 51l-1.293 1.293a1 1 0 1 0 1.414 1.414L40 52.414l1.293 1.293a1 1 0 0 0 1.414-1.414L41.414 51l1.293-1.293a1 1 0 0 0 0-1.414z" fill="#ffffff" opacity="1" data-original="#ffffff" class=""></path></g></g></svg>