<svg width="447" height="386" viewBox="0 0 447 386" fill="none" xmlns="http://www.w3.org/2000/svg">
<path d="M335.665 15.3328H79.6649C70.9715 14.0925 62.1086 14.8928 53.778 17.6705C45.4475 20.4482 37.8778 25.1269 31.6684 31.3364C25.459 37.5458 20.7802 45.1154 18.0025 53.446C15.2249 61.7766 14.4245 70.6394 15.6649 79.3328V106H399.665V79.3328C400.905 70.6394 400.105 61.7766 397.327 53.446C394.55 45.1154 389.871 37.5458 383.661 31.3364C377.452 25.1269 369.882 20.4482 361.552 17.6705C353.221 14.8928 344.358 14.0925 335.665 15.3328ZM15.6649 138V250C14.4245 258.693 15.2249 267.556 18.0025 275.886C20.7802 284.217 25.459 291.787 31.6684 297.996C37.8778 304.205 45.4475 308.884 53.778 311.662C62.1086 314.44 70.9715 315.24 79.6649 314H220.038C221.003 313.994 221.953 313.771 222.819 313.346C223.685 312.921 224.444 312.307 225.039 311.548C225.634 310.789 226.049 309.905 226.255 308.963C226.46 308.02 226.45 307.044 226.225 306.106C224.893 300.002 224.107 293.79 223.878 287.546C222.763 260.006 230.893 232.884 246.976 210.5C263.059 188.116 286.168 171.756 312.625 164.026C338.362 156.651 365.816 158.002 390.705 167.866C391.671 168.288 392.726 168.465 393.776 168.38C394.827 168.296 395.84 167.954 396.727 167.384C397.613 166.815 398.345 166.035 398.858 165.114C399.37 164.193 399.648 163.16 399.665 162.106V138H15.6649ZM164.998 244.666H100.998C96.7548 244.666 92.6851 242.98 89.6845 239.98C86.6839 236.979 84.9982 232.91 84.9982 228.666C84.9982 224.423 86.6839 220.353 89.6845 217.352C92.6851 214.352 96.7548 212.666 100.998 212.666H164.998C169.242 212.666 173.311 214.352 176.312 217.352C179.313 220.353 180.998 224.423 180.998 228.666C180.998 232.91 179.313 236.979 176.312 239.98C173.311 242.98 169.242 244.666 164.998 244.666ZM346.332 191.333C328.399 191.333 310.87 196.65 295.96 206.613C281.05 216.576 269.429 230.736 262.566 247.303C255.704 263.87 253.909 282.1 257.407 299.688C260.905 317.275 269.541 333.431 282.221 346.111C294.9 358.79 311.056 367.426 328.643 370.924C346.231 374.422 364.461 372.627 381.028 365.765C397.595 358.902 411.756 347.281 421.718 332.371C431.681 317.461 436.998 299.932 436.998 282C436.948 257.969 427.379 234.937 410.387 217.945C393.394 200.952 370.362 191.384 346.332 191.333ZM287.665 282C287.574 271.767 290.186 261.691 295.235 252.79C300.285 243.889 307.593 236.479 316.423 231.306C325.253 226.134 335.291 223.383 345.525 223.331C355.758 223.28 365.823 225.93 374.705 231.013L295.345 310.373C290.398 301.728 287.754 291.959 287.665 282ZM346.332 340.666C336.372 340.577 326.603 337.933 317.958 332.986L397.318 253.626C402.401 262.508 405.051 272.573 405 282.806C404.948 293.04 402.197 303.078 397.025 311.908C391.852 320.738 384.442 328.047 375.541 333.096C366.64 338.145 356.564 340.757 346.332 340.666Z" fill="#B792F0"/>
<path d="M346.667 191C328.735 191 311.205 196.318 296.295 206.28C281.385 216.243 269.764 230.403 262.902 246.97C256.039 263.537 254.244 281.767 257.742 299.355C261.241 316.942 269.876 333.098 282.556 345.778C295.236 358.458 311.391 367.093 328.979 370.591C346.566 374.09 364.796 372.294 381.363 365.432C397.93 358.569 412.091 346.948 422.053 332.038C432.016 317.128 437.333 299.599 437.333 281.667C437.283 257.636 427.714 234.604 410.722 217.612C393.729 200.619 370.697 191.051 346.667 191ZM288 281.667C287.91 271.434 290.521 261.358 295.57 252.457C300.62 243.557 307.928 236.146 316.758 230.973C325.588 225.801 335.627 223.05 345.86 222.999C356.093 222.947 366.159 225.597 375.04 230.68L295.68 310.04C290.734 301.396 288.089 291.626 288 281.667ZM346.667 340.333C336.707 340.244 326.938 337.6 318.293 332.653L397.653 253.293C402.737 262.175 405.386 272.24 405.335 282.474C405.283 292.707 402.532 302.745 397.36 311.575C392.188 320.405 384.777 327.714 375.876 332.763C366.975 337.812 356.9 340.424 346.667 340.333Z" fill="#7D37EB"/>
<path d="M335.567 15.5672H79.5672C70.8738 14.3269 62.011 15.1272 53.6804 17.9049C45.3498 20.6826 37.7802 25.3613 31.5707 31.5707C25.3613 37.7802 20.6825 45.3498 17.9049 53.6804C15.1272 62.011 14.3269 70.8738 15.5672 79.5672V106.234H399.567V79.5672C400.808 70.8738 400.007 62.011 397.23 53.6804C394.452 45.3498 389.773 37.7802 383.564 31.5707C377.354 25.3613 369.785 20.6826 361.454 17.9049C353.123 15.1272 344.261 14.3269 335.567 15.5672Z" fill="#7D37EB"/>
</svg>
